<mxfile host="app.diagrams.net" modified="2021-09-15T08:47:32.987Z" agent="5.0 (Macintosh; Intel Mac OS X 10_15_7) AppleWebKit/537.36 (KHTML, like Gecko) Chrome/93.0.4577.63 Safari/537.36" etag="wbopyl4QYnlyg4qm6BdN" version="15.2.7" type="github">
  <diagram id="cGCes3oNz5G1RMZ3vN_b" name="第 1 页">
    <mxGraphModel dx="983" dy="548" grid="1" gridSize="10" guides="1" tooltips="1" connect="1" arrows="1" fold="1" page="1" pageScale="1" pageWidth="827" pageHeight="1169" math="0" shadow="0">
      <root>
        <mxCell id="0" />
        <mxCell id="1" parent="0" />
        <mxCell id="8H9BkAt77iJ7OOLEV8ga-7" value="业务 SVC" style="rounded=0;whiteSpace=wrap;html=1;align=left;verticalAlign=top;fontSize=21;fillColor=#60a917;strokeColor=#2D7600;fontColor=#ffffff;" vertex="1" parent="1">
          <mxGeometry x="390" y="170" width="290" height="130" as="geometry" />
        </mxCell>
        <mxCell id="8H9BkAt77iJ7OOLEV8ga-1" value="&lt;font style=&quot;font-size: 11px&quot;&gt;shebao-common-log&lt;/font&gt;" style="rounded=0;whiteSpace=wrap;html=1;align=left;verticalAlign=top;fontSize=9;fillColor=#f8cecc;strokeColor=#b85450;" vertex="1" parent="1">
          <mxGeometry x="560" y="270" width="120" height="30" as="geometry" />
        </mxCell>
        <mxCell id="8H9BkAt77iJ7OOLEV8ga-8" value="" style="endArrow=classic;html=1;fontSize=21;strokeColor=#006658;fontColor=#5C5C5C;" edge="1" parent="1">
          <mxGeometry width="50" height="50" relative="1" as="geometry">
            <mxPoint x="150" y="235" as="sourcePoint" />
            <mxPoint x="390" y="234.66" as="targetPoint" />
          </mxGeometry>
        </mxCell>
        <mxCell id="8H9BkAt77iJ7OOLEV8ga-10" value="req" style="edgeLabel;html=1;align=center;verticalAlign=middle;resizable=0;points=[];fontSize=20;fontColor=#5C5C5C;" vertex="1" connectable="0" parent="8H9BkAt77iJ7OOLEV8ga-8">
          <mxGeometry x="-0.4581" relative="1" as="geometry">
            <mxPoint x="38" as="offset" />
          </mxGeometry>
        </mxCell>
        <mxCell id="8H9BkAt77iJ7OOLEV8ga-14" value="@SysLog(&quot;删除记录&quot;)" style="text;html=1;strokeColor=#d6b656;fillColor=#fff2cc;align=center;verticalAlign=middle;whiteSpace=wrap;rounded=0;fontSize=4;" vertex="1" parent="1">
          <mxGeometry x="400" y="227.5" width="127" height="15" as="geometry" />
        </mxCell>
        <mxCell id="8H9BkAt77iJ7OOLEV8ga-19" value="&lt;font size=&quot;1&quot;&gt;&lt;i style=&quot;font-size: 11px&quot;&gt;请求带有@SysLog注解标记的方法&lt;/i&gt;&lt;/font&gt;" style="text;html=1;strokeColor=none;fillColor=none;align=center;verticalAlign=middle;whiteSpace=wrap;rounded=0;sketch=0;fontColor=#5C5C5C;dashed=1;" vertex="1" parent="1">
          <mxGeometry x="170" y="250" width="200" height="20" as="geometry" />
        </mxCell>
        <mxCell id="8H9BkAt77iJ7OOLEV8ga-21" value="" style="endArrow=classic;html=1;fontSize=12;fontColor=#5C5C5C;strokeColor=#006658;fillColor=#21C0A5;exitX=0.5;exitY=1;exitDx=0;exitDy=0;entryX=0.5;entryY=0;entryDx=0;entryDy=0;dashed=1;" edge="1" parent="1" source="8H9BkAt77iJ7OOLEV8ga-1">
          <mxGeometry width="50" height="50" relative="1" as="geometry">
            <mxPoint x="460" y="410" as="sourcePoint" />
            <mxPoint x="620" y="360" as="targetPoint" />
          </mxGeometry>
        </mxCell>
        <mxCell id="8H9BkAt77iJ7OOLEV8ga-23" value="" style="endArrow=classic;html=1;fontSize=12;fontColor=#5C5C5C;strokeColor=#006658;fillColor=#21C0A5;exitX=0.5;exitY=1;exitDx=0;exitDy=0;entryX=0.5;entryY=0;entryDx=0;entryDy=0;dashed=1;" edge="1" parent="1" target="8H9BkAt77iJ7OOLEV8ga-30">
          <mxGeometry width="50" height="50" relative="1" as="geometry">
            <mxPoint x="619.66" y="400" as="sourcePoint" />
            <mxPoint x="619.66" y="460" as="targetPoint" />
          </mxGeometry>
        </mxCell>
        <mxCell id="8H9BkAt77iJ7OOLEV8ga-24" value="Auth SVC" style="rounded=0;whiteSpace=wrap;html=1;align=left;verticalAlign=top;fontSize=21;fillColor=#60a917;strokeColor=#2D7600;fontColor=#ffffff;" vertex="1" parent="1">
          <mxGeometry x="827" y="170" width="290" height="130" as="geometry" />
        </mxCell>
        <mxCell id="8H9BkAt77iJ7OOLEV8ga-26" value="" style="endArrow=classic;html=1;fontSize=12;fontColor=#5C5C5C;strokeColor=#006658;fillColor=#21C0A5;entryX=0;entryY=1;entryDx=0;entryDy=0;exitX=1;exitY=0.5;exitDx=0;exitDy=0;" edge="1" parent="1" source="8H9BkAt77iJ7OOLEV8ga-30" target="8H9BkAt77iJ7OOLEV8ga-24">
          <mxGeometry width="50" height="50" relative="1" as="geometry">
            <mxPoint x="680" y="480" as="sourcePoint" />
            <mxPoint x="750.7106781186548" y="480" as="targetPoint" />
          </mxGeometry>
        </mxCell>
        <mxCell id="8H9BkAt77iJ7OOLEV8ga-33" value="http" style="edgeLabel;html=1;align=center;verticalAlign=middle;resizable=0;points=[];fontSize=12;fontColor=#5C5C5C;" vertex="1" connectable="0" parent="8H9BkAt77iJ7OOLEV8ga-26">
          <mxGeometry x="-0.015" y="-1" relative="1" as="geometry">
            <mxPoint as="offset" />
          </mxGeometry>
        </mxCell>
        <mxCell id="8H9BkAt77iJ7OOLEV8ga-29" value="&lt;span style=&quot;color: rgb(0, 0, 0);&quot;&gt;1）Around通知&lt;/span&gt;&lt;br style=&quot;color: rgb(0, 0, 0);&quot;&gt;&lt;span style=&quot;color: rgb(0, 0, 0);&quot;&gt;2）发送异步事件&lt;/span&gt;" style="shape=process;whiteSpace=wrap;html=1;backgroundOutline=1;rounded=0;dashed=1;sketch=0;fontSize=12;strokeColor=#d6b656;fillColor=#fff2cc;verticalAlign=top;align=left;" vertex="1" parent="1">
          <mxGeometry x="560" y="360" width="120" height="60" as="geometry" />
        </mxCell>
        <mxCell id="8H9BkAt77iJ7OOLEV8ga-30" value="&lt;span style=&quot;color: rgb(0, 0, 0);&quot;&gt;1）触发事件监听&lt;br&gt;2）调用 Feign 接口&lt;/span&gt;" style="shape=process;whiteSpace=wrap;html=1;backgroundOutline=1;rounded=0;dashed=1;sketch=0;fontSize=12;strokeColor=#d6b656;fillColor=#fff2cc;verticalAlign=top;align=left;" vertex="1" parent="1">
          <mxGeometry x="560" y="470" width="120" height="60" as="geometry" />
        </mxCell>
        <mxCell id="8H9BkAt77iJ7OOLEV8ga-34" value="DB" style="shape=cylinder3;whiteSpace=wrap;html=1;boundedLbl=1;backgroundOutline=1;size=15;rounded=0;dashed=1;sketch=0;fontSize=12;fontColor=#5C5C5C;strokeColor=#006658;fillColor=#21C0A5;align=center;verticalAlign=top;" vertex="1" parent="1">
          <mxGeometry x="960" y="450" width="60" height="80" as="geometry" />
        </mxCell>
        <mxCell id="8H9BkAt77iJ7OOLEV8ga-35" value="" style="shape=flexArrow;endArrow=classic;html=1;fontSize=12;fontColor=#5C5C5C;strokeColor=#006658;fillColor=#C0A330;" edge="1" parent="1">
          <mxGeometry width="50" height="50" relative="1" as="geometry">
            <mxPoint x="990" y="320" as="sourcePoint" />
            <mxPoint x="990" y="430" as="targetPoint" />
          </mxGeometry>
        </mxCell>
        <mxCell id="8H9BkAt77iJ7OOLEV8ga-36" value="" style="curved=1;endArrow=classic;html=1;fontSize=12;fontColor=#5C5C5C;strokeColor=#006658;fillColor=#C0A330;entryX=0;entryY=0.25;entryDx=0;entryDy=0;exitX=0.324;exitY=1.174;exitDx=0;exitDy=0;exitPerimeter=0;dashed=1;dashPattern=1 2;" edge="1" parent="1" source="8H9BkAt77iJ7OOLEV8ga-14" target="8H9BkAt77iJ7OOLEV8ga-1">
          <mxGeometry width="50" height="50" relative="1" as="geometry">
            <mxPoint x="430" y="430" as="sourcePoint" />
            <mxPoint x="480" y="380" as="targetPoint" />
            <Array as="points">
              <mxPoint x="450" y="270" />
            </Array>
          </mxGeometry>
        </mxCell>
      </root>
    </mxGraphModel>
  </diagram>
</mxfile>
